<?xml version="1.0" encoding="UTF-8" standalone="no"?>
<svg
   width="136"
   height="26"
   version="1.1"
   id="svg10"
   sodipodi:docname="page-logo.svg"
   inkscape:version="1.1 (c68e22c387, 2021-05-23)"
   xmlns:inkscape="http://www.inkscape.org/namespaces/inkscape"
   xmlns:sodipodi="http://sodipodi.sourceforge.net/DTD/sodipodi-0.dtd"
   xmlns="http://www.w3.org/2000/svg"
   xmlns:svg="http://www.w3.org/2000/svg">
  <defs
     id="defs14" />
  <sodipodi:namedview
     id="namedview12"
     pagecolor="#505050"
     bordercolor="#ffffff"
     borderopacity="1"
     inkscape:pageshadow="0"
     inkscape:pageopacity="0"
     inkscape:pagecheckerboard="1"
     showgrid="false"
     width="149px"
     inkscape:current-layer="svg10" />
  <g
     aria-label="toolbox"
     id="text1536"
     style="font-weight:bold;font-size:24.4049px;line-height:1.25;font-family:Heebo;-inkscape-font-specification:'Heebo, Bold';text-align:center;letter-spacing:0px;word-spacing:0px;text-anchor:middle;fill:#201a26;stroke-width:0.295678"
     transform="translate(-12.128423)">
    <path
       d="M 57.040378,11.96487 H 49.425763 V 9.3432504 h 7.614615 z M 54.859667,6.1615569 V 18.209093 q 0,0.524324 0.131081,0.810319 0.142997,0.285995 0.440909,0.393243 0.297911,0.107248 0.73882,0.107248 0.321744,0 0.57199,-0.02383 0.250245,-0.02383 0.428992,-0.05958 l -0.01192,2.716951 q -0.440909,0.154914 -0.965233,0.238329 -0.512408,0.08342 -1.155896,0.08342 -1.155896,0 -2.013881,-0.381327 -0.846069,-0.393243 -1.31081,-1.239311 -0.452826,-0.857985 -0.452826,-2.240294 V 6.1615569 Z"
       id="path5606" />
    <path
       d="m 58.07711,15.670888 q 0,-1.8828 0.714987,-3.36044 0.714988,-1.489557 2.08538,-2.347542 1.370392,-0.8579847 3.324691,-0.8579847 1.978131,0 3.348524,0.8579847 1.382308,0.857985 2.085379,2.347542 0.714987,1.47764 0.714987,3.36044 v 0.250245 q 0,1.870884 -0.714987,3.360441 -0.703071,1.489557 -2.073463,2.347541 -1.370392,0.846069 -3.336607,0.846069 -1.966215,0 -3.348524,-0.846069 -1.370392,-0.857984 -2.08538,-2.347541 -0.714987,-1.489557 -0.714987,-3.360441 z m 3.610686,0.250245 q 0,1.012899 0.238329,1.847051 0.250245,0.834152 0.798402,1.322726 0.560074,0.488575 1.501474,0.488575 0.929483,0 1.47764,-0.488575 0.560073,-0.488574 0.798403,-1.322726 0.250245,-0.834152 0.250245,-1.847051 v -0.250245 q 0,-0.989066 -0.250245,-1.823218 -0.23833,-0.846068 -0.798403,-1.346559 -0.548157,-0.500491 -1.501473,-0.500491 -0.929484,0 -1.489557,0.500491 -0.548157,0.500491 -0.786486,1.346559 -0.238329,0.834152 -0.238329,1.823218 z"
       id="path5608" />
    <path
       d="m 71.876364,15.670888 q 0,-1.8828 0.714988,-3.36044 0.714987,-1.489557 2.085379,-2.347542 1.370393,-0.8579847 3.324691,-0.8579847 1.978132,0 3.348524,0.8579847 1.382309,0.857985 2.08538,2.347542 0.714987,1.47764 0.714987,3.36044 v 0.250245 q 0,1.870884 -0.714987,3.360441 -0.703071,1.489557 -2.073464,2.347541 -1.370392,0.846069 -3.336607,0.846069 -1.966215,0 -3.348524,-0.846069 -1.370392,-0.857984 -2.085379,-2.347541 -0.714988,-1.489557 -0.714988,-3.360441 z m 3.610686,0.250245 q 0,1.012899 0.238329,1.847051 0.250246,0.834152 0.798403,1.322726 0.560073,0.488575 1.501473,0.488575 0.929484,0 1.477641,-0.488575 0.560073,-0.488574 0.798402,-1.322726 0.250246,-0.834152 0.250246,-1.847051 v -0.250245 q 0,-0.989066 -0.250246,-1.823218 -0.238329,-0.846068 -0.798402,-1.346559 -0.548157,-0.500491 -1.501474,-0.500491 -0.929483,0 -1.489557,0.500491 -0.548157,0.500491 -0.786486,1.346559 -0.238329,0.834152 -0.238329,1.823218 z"
       id="path5610" />
    <path
       d="M 90.001291,22.236855 H 86.390605 V 3.9331799 h 3.610686 z"
       id="path5612" />
    <path
       d="M 96.352761,3.9331799 V 19.186242 l -0.36941,3.050613 H 92.753992 V 3.9331799 Z m 8.103189,11.9641211 q 0,1.930465 -0.54816,3.420022 -0.54815,1.489557 -1.65638,2.323709 -1.10823,0.834152 -2.800371,0.834152 -1.596805,0 -2.609703,-0.857985 Q 95.840353,20.747298 95.28028,19.269657 94.720207,17.7801 94.481878,15.921133 v -0.285994 q 0.238329,-1.847051 0.786486,-3.324691 0.560073,-1.477641 1.561055,-2.3356255 1.012899,-0.8699012 2.597787,-0.8699012 1.704054,0 2.812284,0.8460683 1.12015,0.8460684 1.6683,2.3237084 0.54816,1.477641 0.54816,3.372357 z m -3.59877,-0.250246 q 0,-0.977149 -0.19066,-1.799385 -0.19067,-0.834152 -0.703073,-1.322726 -0.500491,-0.500491 -1.453808,-0.500491 -0.667321,0 -1.143979,0.214496 -0.476659,0.214496 -0.786486,0.631572 -0.297912,0.405159 -0.452826,0.989066 -0.142997,0.583906 -0.154914,1.298893 v 1.251228 q 0.02383,0.953317 0.285995,1.668304 0.262162,0.703071 0.810319,1.096314 0.560074,0.393243 1.465724,0.393243 0.953317,0 1.453808,-0.464742 0.50049,-0.476658 0.67924,-1.298894 0.19066,-0.834152 0.19066,-1.906632 z"
       id="path5614" />
    <path
       d="m 105.95742,15.670888 q 0,-1.8828 0.71499,-3.36044 0.71499,-1.489557 2.08538,-2.347542 1.37039,-0.8579847 3.32469,-0.8579847 1.97813,0 3.34853,0.8579847 1.38231,0.857985 2.08538,2.347542 0.71498,1.47764 0.71498,3.36044 v 0.250245 q 0,1.870884 -0.71498,3.360441 -0.70307,1.489557 -2.07347,2.347541 -1.37039,0.846069 -3.3366,0.846069 -1.96622,0 -3.34853,-0.846069 -1.37039,-0.857984 -2.08538,-2.347541 -0.71499,-1.489557 -0.71499,-3.360441 z m 3.61069,0.250245 q 0,1.012899 0.23833,1.847051 0.25025,0.834152 0.7984,1.322726 0.56008,0.488575 1.50148,0.488575 0.92948,0 1.47764,-0.488575 0.56007,-0.488574 0.7984,-1.322726 0.25024,-0.834152 0.25024,-1.847051 v -0.250245 q 0,-0.989066 -0.25024,-1.823218 -0.23833,-0.846068 -0.7984,-1.346559 -0.54816,-0.500491 -1.50148,-0.500491 -0.92948,0 -1.48955,0.500491 -0.54816,0.500491 -0.78649,1.346559 -0.23833,0.834152 -0.23833,1.823218 z"
       id="path5616" />
    <path
       d="m 124.88075,13.073101 2.07347,-3.7298506 h 3.82518 l -3.59877,6.3038046 3.75368,6.5898 h -3.8371 l -2.21646,-3.956263 -2.18071,3.956263 h -3.86093 l 3.7656,-6.5898 -3.59877,-6.3038046 h 3.84902 z"
       id="path5618" />
  </g>
  <text
     xml:space="preserve"
     style="font-style:normal;font-variant:normal;font-weight:bold;font-stretch:normal;font-size:10.9906px;line-height:0%;font-family:Overpass;-inkscape-font-specification:'Overpass Bold';text-align:center;letter-spacing:0px;word-spacing:0px;writing-mode:lr-tb;text-anchor:middle;fill:#000000;fill-opacity:1;stroke:none;stroke-width:1;enable-background:new"
     x="204.34966"
     y="-70.222595"
     id="text1011"><tspan
       sodipodi:role="line"
       id="tspan1009"
       x="208.85275"
       y="-70.222595"
       style="font-size:36.6353px;line-height:1.25;text-align:center;letter-spacing:9.00619;text-anchor:middle;stroke-width:1">TOOLBOX</tspan></text>
  <path
     id="path1013"
     d="m 48.731309,-111.71207 -24.947296,14.500393 0.05566,18.93439 8.443784,-4.60041 c 0.01617,-9.12131 7.408763,-16.51213 16.532717,-16.51213 2.81004,10e-4 5.573231,0.71995 8.028548,2.08637 l -12.780922,7.58096 0.03792,9.64752 8.369577,4.79938 12.88638,-7.64293 c 7.59e-4,0.0216 0.0014,0.0432 0.0014,0.0623 0,9.13105 -7.402223,16.53326 -16.533274,16.53326 -2.372882,0 -4.626955,-0.5035 -6.666749,-1.40368 l -8.812087,4.80082 15.562988,8.9251 24.947302,-14.50045 -0.0827,-28.85556 z"
     style="vector-effect:none;fill:#613583;fill-opacity:1;stroke:none;stroke-width:6;stroke-linecap:butt;stroke-linejoin:miter;stroke-miterlimit:4;stroke-dasharray:none;stroke-dashoffset:0;stroke-opacity:1;marker:none;marker-start:none;marker-mid:none;marker-end:none;paint-order:normal;enable-background:new"
     inkscape:connector-curvature="0" />
  <path
     id="path5591"
     d="M 15.795967,0.1339328 4.6582908,6.6076076 4.6831439,15.060833 8.452856,13.006988 c 0.00722,-4.0721932 3.307629,-7.3718117 7.381002,-7.3718117 1.254538,4.464e-4 2.488159,0.3214202 3.584331,0.9314565 l -5.70602,3.3845056 0.01693,4.3071186 3.736583,2.142675 5.753102,-3.412173 c 3.39e-4,0.0096 6.25e-4,0.01929 6.25e-4,0.02782 0,4.076541 -3.30471,7.381244 -7.381252,7.381244 -1.059368,0 -2.065695,-0.224786 -2.976358,-0.62667 l -3.9341406,2.143317 6.9480686,3.984596 11.137679,-6.4737 -0.03692,-12.8825149 z"
     style="vector-effect:none;fill:#613583;fill-opacity:1;stroke:none;stroke-width:2.67869;stroke-linecap:butt;stroke-linejoin:miter;stroke-miterlimit:4;stroke-dasharray:none;stroke-dashoffset:0;stroke-opacity:1;marker:none;marker-start:none;marker-mid:none;marker-end:none;paint-order:normal;enable-background:new"
     inkscape:connector-curvature="0" />
</svg>
